<?xml version="1.0" encoding="utf-8"?>
<!-- Generator: Adobe Illustrator 16.0.0, SVG Export Plug-In . SVG Version: 6.00 Build 0)  -->
<!DOCTYPE svg PUBLIC "-//W3C//DTD SVG 1.1//EN" "http://www.w3.org/Graphics/SVG/1.1/DTD/svg11.dtd">
<svg version="1.1" id="Layer_1" xmlns="http://www.w3.org/2000/svg" xmlns:xlink="http://www.w3.org/1999/xlink" x="0px" y="0px"
	 width="60px" height="60px" viewBox="0 0 60 60" enable-background="new 0 0 60 60" xml:space="preserve">
<g>
	<g>
		<path fill="none" d="M33.13,45.988c-0.042-0.091-0.106-0.16-0.192-0.208c-0.084-0.048-0.207-0.072-0.366-0.072h-0.423v1.932h0.391
			c0.165,0,0.293-0.023,0.383-0.071c0.091-0.049,0.156-0.115,0.199-0.2c0.043-0.08,0.068-0.179,0.076-0.295
			c0.008-0.117,0.012-0.248,0.012-0.392c0-0.133-0.002-0.26-0.008-0.379C33.197,46.184,33.172,46.078,33.13,45.988z"/>
		<polygon fill="none" points="13.689,53.102 13.685,53.102 13.446,53.822 13.929,53.822 		"/>
		<path fill="none" d="M34.066,54.057c0.026,0.034,0.061,0.061,0.104,0.083c0.042,0.024,0.094,0.037,0.152,0.037
			c0.06,0,0.111-0.013,0.154-0.037c0.042-0.022,0.075-0.049,0.1-0.083c0.033-0.035,0.055-0.081,0.066-0.14
			c0.012-0.057,0.017-0.166,0.017-0.329c0-0.162-0.005-0.272-0.017-0.331c-0.012-0.056-0.033-0.102-0.066-0.137
			c-0.024-0.034-0.058-0.063-0.1-0.085c-0.043-0.022-0.095-0.034-0.154-0.035c-0.059,0.001-0.11,0.013-0.152,0.035
			c-0.043,0.022-0.077,0.051-0.104,0.085c-0.033,0.035-0.055,0.081-0.064,0.137c-0.013,0.059-0.019,0.169-0.019,0.331
			c0,0.163,0.006,0.272,0.019,0.329C34.012,53.976,34.033,54.021,34.066,54.057z"/>
		<polygon fill="none" points="38.708,46.578 38.309,48.638 39.123,48.638 38.724,46.578 		"/>
		<path fill="none" d="M18.43,49.857c0.149,0,0.278-0.045,0.387-0.139s0.164-0.238,0.164-0.435v-3.001
			c0-0.197-0.055-0.342-0.164-0.436c-0.109-0.093-0.238-0.14-0.387-0.14s-0.278,0.047-0.387,0.14
			c-0.109,0.094-0.164,0.238-0.164,0.436v3.001c0,0.196,0.054,0.341,0.164,0.435C18.152,49.813,18.281,49.857,18.43,49.857z"/>
		<path fill="none" d="M50.345,53.405c0.046-0.049,0.07-0.109,0.07-0.182c-0.002-0.085-0.029-0.147-0.083-0.187
			c-0.043-0.034-0.104-0.051-0.184-0.051h-0.393v0.5h0.38C50.228,53.485,50.299,53.457,50.345,53.405z"/>
		<path fill="#FDFDFE" d="M11.064,50.385c0.127,0.106,0.271,0.181,0.431,0.224c0.16,0.042,0.316,0.063,0.471,0.063
			c0.181,0,0.35-0.036,0.507-0.107c0.157-0.072,0.294-0.169,0.411-0.292c0.117-0.121,0.208-0.262,0.275-0.419
			c0.066-0.156,0.1-0.322,0.1-0.498v-0.352h-0.814v0.28c0,0.11-0.016,0.204-0.048,0.278c-0.032,0.075-0.072,0.134-0.12,0.176
			c-0.053,0.043-0.11,0.074-0.171,0.092c-0.062,0.019-0.119,0.027-0.172,0.027c-0.187,0-0.315-0.055-0.387-0.167
			c-0.072-0.111-0.108-0.25-0.108-0.415V46.37c0-0.19,0.034-0.35,0.1-0.475c0.066-0.124,0.201-0.188,0.403-0.188
			c0.154,0,0.276,0.059,0.367,0.176c0.09,0.117,0.136,0.255,0.136,0.415v0.271h0.814v-0.319c0-0.196-0.033-0.38-0.1-0.546
			c-0.067-0.168-0.159-0.313-0.275-0.436c-0.24-0.25-0.551-0.376-0.934-0.376c-0.197,0-0.376,0.034-0.538,0.101
			c-0.163,0.066-0.302,0.158-0.419,0.275s-0.208,0.255-0.271,0.415c-0.064,0.16-0.096,0.333-0.096,0.519v3.128
			c0,0.262,0.042,0.475,0.124,0.643C10.832,50.141,10.937,50.278,11.064,50.385z"/>
		<path fill="#FDFDFE" d="M17.504,50.321c0.128,0.117,0.272,0.205,0.435,0.264c0.162,0.058,0.326,0.087,0.491,0.087
			s0.329-0.029,0.491-0.087c0.162-0.059,0.31-0.146,0.443-0.264c0.128-0.112,0.231-0.253,0.312-0.424
			c0.08-0.17,0.12-0.375,0.12-0.613v-3.001c0-0.229-0.04-0.432-0.12-0.607c-0.08-0.175-0.184-0.321-0.312-0.438
			c-0.133-0.111-0.281-0.197-0.443-0.255c-0.162-0.06-0.326-0.089-0.491-0.089s-0.329,0.029-0.491,0.089
			c-0.163,0.058-0.307,0.144-0.435,0.255c-0.133,0.117-0.239,0.264-0.319,0.438c-0.08,0.176-0.12,0.379-0.12,0.607v3.001
			c0,0.238,0.04,0.443,0.12,0.613C17.265,50.068,17.371,50.209,17.504,50.321z M17.88,46.283c0-0.197,0.054-0.342,0.164-0.436
			c0.109-0.093,0.238-0.14,0.387-0.14s0.278,0.047,0.387,0.14c0.109,0.094,0.164,0.238,0.164,0.436v3.001
			c0,0.196-0.055,0.341-0.164,0.435s-0.238,0.139-0.387,0.139s-0.278-0.045-0.387-0.139c-0.109-0.094-0.164-0.238-0.164-0.435
			V46.283z"/>
		<polygon fill="#FDFDFE" points="25.549,47.951 25.533,47.951 24.487,44.942 23.706,44.942 23.706,50.624 24.519,50.624 
			24.519,47.169 24.535,47.169 25.333,49.61 25.74,49.61 26.546,47.169 26.562,47.169 26.562,50.624 27.376,50.624 27.376,44.942 
			26.586,44.942 		"/>
		<path fill="#FDFDFE" d="M33.608,45.341c-0.138-0.149-0.293-0.252-0.462-0.311c-0.171-0.059-0.369-0.088-0.592-0.088h-1.221v5.682
			h0.814v-2.219h0.414c0.303,0,0.549-0.051,0.734-0.155c0.186-0.104,0.336-0.249,0.447-0.435c0.096-0.154,0.158-0.319,0.188-0.495
			s0.044-0.391,0.044-0.646c0-0.341-0.026-0.61-0.079-0.81C33.843,45.664,33.746,45.49,33.608,45.341z M33.197,47.073
			c-0.008,0.116-0.033,0.215-0.076,0.295c-0.043,0.085-0.108,0.151-0.199,0.2c-0.09,0.048-0.218,0.071-0.383,0.071h-0.391v-1.932
			h0.423c0.159,0,0.282,0.024,0.366,0.072c0.086,0.048,0.15,0.117,0.192,0.208c0.042,0.09,0.067,0.195,0.071,0.314
			c0.006,0.119,0.008,0.246,0.008,0.379C33.209,46.825,33.205,46.956,33.197,47.073z"/>
		<path fill="#FDFDFE" d="M38.381,44.942l-1.269,5.682h0.813l0.239-1.221h1.11l0.238,1.221h0.814l-1.27-5.682H38.381z
			 M38.309,48.638l0.399-2.06h0.016l0.399,2.06H38.309z"/>
		<polygon fill="#FDFDFE" points="43.886,50.624 44.701,50.624 44.701,47.208 44.718,47.208 45.963,50.624 46.729,50.624 
			46.729,44.942 45.914,44.942 45.914,48.366 45.898,48.366 44.669,44.942 43.886,44.942 		"/>
		<polygon fill="#FDFDFE" points="51.412,50.624 52.227,50.624 52.227,48.223 53.344,44.942 52.481,44.942 51.827,47.201 
			51.812,47.201 51.157,44.942 50.295,44.942 51.412,48.223 		"/>
		<polygon fill="#262E3A" points="11.308,54.413 11.308,52.986 11.76,52.986 11.76,52.764 10.606,52.764 10.606,52.986 
			11.057,52.986 11.057,54.413 		"/>
		<path fill="#262E3A" d="M13.248,54.413l0.126-0.369H14l0.128,0.369h0.263l-0.6-1.649h-0.209l-0.599,1.649H13.248z M13.685,53.102
			h0.004l0.239,0.721h-0.482L13.685,53.102z"/>
		<path fill="#262E3A" d="M15.899,54.059c0.009,0.023,0.021,0.047,0.033,0.071c0.04,0.076,0.104,0.144,0.192,0.201
			c0.086,0.061,0.195,0.093,0.325,0.096c0.168-0.003,0.307-0.06,0.418-0.171c0.11-0.111,0.167-0.25,0.17-0.415v-0.336h-0.586v0.236
			h0.336v0.086c-0.001,0.104-0.034,0.187-0.097,0.25c-0.063,0.066-0.144,0.1-0.241,0.1c-0.06,0-0.11-0.013-0.152-0.037
			c-0.043-0.022-0.078-0.049-0.104-0.083c-0.032-0.035-0.054-0.081-0.064-0.14c-0.012-0.057-0.018-0.166-0.018-0.329
			c0-0.162,0.006-0.272,0.018-0.331c0.01-0.056,0.032-0.102,0.064-0.137c0.026-0.034,0.061-0.063,0.104-0.085
			c0.042-0.022,0.092-0.034,0.152-0.035c0.08,0.001,0.147,0.024,0.204,0.069c0.053,0.046,0.09,0.104,0.111,0.17h0.264
			c-0.026-0.139-0.089-0.254-0.189-0.348c-0.101-0.093-0.23-0.14-0.389-0.141c-0.13,0.001-0.238,0.031-0.325,0.092
			c-0.088,0.06-0.152,0.127-0.192,0.204c-0.025,0.04-0.043,0.092-0.056,0.157c-0.011,0.064-0.017,0.192-0.017,0.384
			c0,0.189,0.006,0.316,0.017,0.383C15.882,54.007,15.89,54.036,15.899,54.059z"/>
		<polygon fill="#262E3A" points="18.719,52.764 18.719,54.413 19.772,54.413 19.772,54.177 18.969,54.177 18.969,52.764 		"/>
		<rect x="21.398" y="52.764" fill="#262E3A" width="0.25" height="1.649"/>
		<polygon fill="#262E3A" points="23.386,52.764 23.386,54.413 23.636,54.413 23.636,53.241 23.64,53.241 24.386,54.413 
			24.622,54.413 24.622,52.764 24.373,52.764 24.373,53.936 24.368,53.936 23.621,52.764 		"/>
		<polygon fill="#262E3A" points="27.414,53 27.414,52.764 26.361,52.764 26.361,54.413 27.414,54.413 27.414,54.177 26.611,54.177 
			26.611,53.692 27.297,53.692 27.297,53.472 26.611,53.472 26.611,53 		"/>
		<path fill="#262E3A" d="M31.002,53.047c-0.025,0.04-0.044,0.092-0.056,0.157c-0.011,0.064-0.017,0.192-0.017,0.384
			c0,0.189,0.006,0.316,0.017,0.383c0.006,0.036,0.014,0.065,0.023,0.088c0.01,0.023,0.021,0.047,0.033,0.071
			c0.039,0.076,0.104,0.144,0.191,0.201c0.088,0.061,0.195,0.093,0.326,0.096c0.167-0.003,0.307-0.06,0.418-0.171
			c0.109-0.111,0.167-0.25,0.17-0.415v-0.336h-0.587v0.236h0.336v0.086c-0.001,0.104-0.034,0.187-0.097,0.25
			c-0.063,0.066-0.145,0.1-0.24,0.1c-0.061,0-0.111-0.013-0.152-0.037c-0.043-0.022-0.078-0.049-0.104-0.083
			c-0.032-0.035-0.054-0.081-0.065-0.14c-0.011-0.057-0.018-0.166-0.018-0.329c0-0.162,0.007-0.272,0.018-0.331
			c0.012-0.056,0.033-0.102,0.065-0.137c0.026-0.034,0.062-0.063,0.104-0.085c0.041-0.022,0.092-0.034,0.152-0.035
			c0.078,0.001,0.147,0.024,0.202,0.069c0.054,0.046,0.091,0.104,0.111,0.17h0.265c-0.026-0.139-0.09-0.254-0.189-0.348
			c-0.102-0.093-0.23-0.14-0.389-0.141c-0.131,0.001-0.238,0.031-0.326,0.092C31.105,52.902,31.041,52.97,31.002,53.047z"/>
		<path fill="#262E3A" d="M33.805,53.047c-0.024,0.04-0.043,0.092-0.055,0.157c-0.013,0.064-0.018,0.192-0.018,0.384
			c0,0.189,0.005,0.316,0.018,0.383c0.005,0.036,0.014,0.065,0.021,0.088c0.011,0.023,0.021,0.047,0.033,0.071
			c0.039,0.076,0.104,0.144,0.193,0.201c0.086,0.061,0.193,0.093,0.324,0.096c0.131-0.003,0.239-0.035,0.327-0.096
			c0.087-0.058,0.149-0.125,0.188-0.201c0.027-0.039,0.047-0.093,0.057-0.159s0.016-0.193,0.016-0.383
			c0-0.191-0.006-0.319-0.016-0.384c-0.01-0.065-0.029-0.117-0.057-0.157c-0.039-0.077-0.102-0.145-0.188-0.204
			c-0.088-0.061-0.196-0.091-0.327-0.092c-0.131,0.001-0.238,0.031-0.324,0.092C33.908,52.902,33.844,52.97,33.805,53.047z
			 M34.002,53.257c0.01-0.056,0.031-0.102,0.064-0.137c0.026-0.034,0.061-0.063,0.104-0.085c0.042-0.022,0.094-0.034,0.152-0.035
			c0.06,0.001,0.111,0.013,0.154,0.035c0.042,0.022,0.075,0.051,0.1,0.085c0.033,0.035,0.055,0.081,0.066,0.137
			c0.012,0.059,0.017,0.169,0.017,0.331c0,0.163-0.005,0.272-0.017,0.329c-0.012,0.059-0.033,0.104-0.066,0.14
			c-0.024,0.034-0.058,0.061-0.1,0.083c-0.043,0.024-0.095,0.037-0.154,0.037c-0.059,0-0.11-0.013-0.152-0.037
			c-0.043-0.022-0.077-0.049-0.104-0.083c-0.033-0.035-0.055-0.081-0.064-0.14c-0.013-0.057-0.019-0.166-0.019-0.329
			C33.983,53.426,33.989,53.315,34.002,53.257z"/>
		<polygon fill="#262E3A" points="36.592,54.413 37.646,54.413 37.646,54.177 36.842,54.177 36.842,53.692 37.527,53.692 
			37.527,53.472 36.842,53.472 36.842,53 37.646,53 37.646,52.764 36.592,52.764 		"/>
		<path fill="#262E3A" d="M39.76,54.177c-0.181-0.001-0.337-0.057-0.469-0.164L39.127,54.2c0.176,0.151,0.387,0.227,0.631,0.227
			c0.378-0.005,0.57-0.165,0.579-0.479c0-0.117-0.036-0.22-0.11-0.308c-0.074-0.09-0.188-0.146-0.342-0.167
			c-0.08-0.01-0.141-0.018-0.186-0.025c-0.082-0.015-0.141-0.043-0.179-0.082c-0.036-0.038-0.055-0.081-0.055-0.128
			c0.001-0.08,0.028-0.14,0.083-0.18C39.6,53.02,39.664,53,39.74,53c0.148,0.003,0.285,0.046,0.408,0.127l0.14-0.206
			c-0.151-0.109-0.329-0.166-0.534-0.17c-0.172,0.001-0.303,0.045-0.396,0.133c-0.097,0.088-0.145,0.204-0.145,0.349
			c0,0.12,0.038,0.221,0.114,0.306c0.074,0.081,0.183,0.133,0.324,0.156c0.078,0.012,0.152,0.022,0.219,0.031
			c0.143,0.025,0.216,0.099,0.215,0.222C40.083,54.098,39.975,54.174,39.76,54.177z"/>
		<polygon fill="#262E3A" points="43.937,52.764 43.937,54.413 44.186,54.413 44.186,53.692 44.839,53.692 44.839,54.413 
			45.089,54.413 45.089,52.764 44.839,52.764 44.839,53.472 44.186,53.472 44.186,52.764 		"/>
		<polygon fill="#262E3A" points="47.882,54.177 47.078,54.177 47.078,53.692 47.765,53.692 47.765,53.472 47.078,53.472 47.078,53 
			47.882,53 47.882,52.764 46.828,52.764 46.828,54.413 47.882,54.413 		"/>
		<path fill="#262E3A" d="M49.756,53.709h0.319l0.341,0.704h0.299l-0.383-0.731c0.21-0.081,0.315-0.233,0.318-0.458
			c-0.004-0.152-0.059-0.27-0.165-0.352c-0.085-0.072-0.197-0.108-0.335-0.108h-0.643v1.649h0.248V53.709z M49.756,52.986h0.393
			c0.079,0,0.141,0.017,0.184,0.051c0.054,0.039,0.081,0.102,0.083,0.187c0,0.072-0.024,0.133-0.07,0.182
			c-0.046,0.052-0.117,0.08-0.209,0.081h-0.38V52.986z"/>
		<polygon fill="#262E3A" points="53.363,53 53.363,52.764 52.31,52.764 52.31,54.413 53.363,54.413 53.363,54.177 52.56,54.177 
			52.56,53.692 53.246,53.692 53.246,53.472 52.56,53.472 52.56,53 		"/>
		<path fill="#8DB1DE" d="M39.004,24.829v5.523H25.059c-0.365,0-0.72-0.032-1.066-0.1c-0.049-0.011-0.099-0.022-0.148-0.032
			c-0.777-0.169-1.494-0.499-2.117-0.953c-1.413-1.032-2.334-2.697-2.334-4.576V5.573c2.802,1.595,4.6,4.602,4.6,7.9v9.046
			c0,1.786,1.451,3.236,3.236,3.236h9.511C37.621,25.755,38.42,25.401,39.004,24.829z"/>
		<path fill="#8DB1DE" d="M44.575,5.573v10.672c-0.991-1.464-2.54-2.534-4.375-2.883c-0.073-0.014-0.146-0.027-0.221-0.037
			C40.031,10.084,41.816,7.144,44.575,5.573z"/>
		<path fill="#F26822" d="M44.575,20.089v19.115c-2.8-1.595-4.597-4.603-4.597-7.899v-9.046c0-1.784-1.453-3.237-3.238-3.237h-9.511
			c-0.88,0-1.679,0.353-2.263,0.925v-5.523h13.946c0.365,0,0.72,0.033,1.066,0.101C42.592,15.024,44.575,17.328,44.575,20.089z"/>
		<path fill="#F26822" d="M23.991,31.452c-0.051,3.24-1.837,6.181-4.598,7.752V28.528c0.438,0.647,0.99,1.223,1.638,1.694
			c0.769,0.563,1.632,0.951,2.56,1.154l0.031,0.009c0.05,0.009,0.099,0.02,0.146,0.029C23.841,31.429,23.916,31.442,23.991,31.452z"
			/>
	</g>
</g>
</svg>
